<svg width="17" height="16" viewBox="0 0 17 16" fill="none" xmlns="http://www.w3.org/2000/svg">
<path d="M15.5646 6.28571H10.1769V1.14286C10.1769 0.511786 9.64071 0 8.97959 0H7.78231C7.12119 0 6.58503 0.511786 6.58503 1.14286V6.28571H1.19728C0.536156 6.28571 0 6.7975 0 7.42857V8.57143C0 9.2025 0.536156 9.71429 1.19728 9.71429H6.58503V14.8571C6.58503 15.4882 7.12119 16 7.78231 16H8.97959C9.64071 16 10.1769 15.4882 10.1769 14.8571V9.71429H15.5646C16.2257 9.71429 16.7619 9.2025 16.7619 8.57143V7.42857C16.7619 6.7975 16.2257 6.28571 15.5646 6.28571Z" fill="white"/>
</svg>
