<svg width="20" height="16" viewBox="0 0 20 16" fill="none" xmlns="http://www.w3.org/2000/svg">
<path d="M9.72497 3.50462C11.9341 3.50462 13.725 5.29549 13.725 7.50462C13.725 9.71376 11.9341 11.5046 9.72497 11.5046C7.51583 11.5046 5.72497 9.71376 5.72497 7.50462C5.72497 5.29549 7.51583 3.50462 9.72497 3.50462ZM9.72497 0C14.3385 0 18.3211 3.15001 19.4261 7.56439C19.5267 7.9662 19.2825 8.37348 18.8807 8.47406C18.4788 8.57465 18.0716 8.33045 17.971 7.92863C17.0321 4.17796 13.6463 1.5 9.72497 1.5C5.8019 1.5 2.41507 4.18026 1.47783 7.93315C1.37747 8.33502 0.970326 8.57944 0.568455 8.47908C0.166584 8.37872 -0.077837 7.97158 0.0225256 7.56971C1.12562 3.15272 5.10945 0 9.72497 0Z" fill="white"/>
<path d="M9.72374 12C7.51461 12 5.72374 10.2091 5.72374 8C5.72374 5.79086 7.51461 4 9.72374 4C11.9329 4 13.7237 5.79086 13.7237 8C13.7237 10.2091 11.9329 12 9.72374 12ZM9.72374 15.5046C5.11023 15.5046 1.12766 12.3546 0.0226269 7.94024C-0.0779574 7.53842 0.166239 7.13115 0.568054 7.03056C0.96987 6.92998 1.37715 7.17418 1.47773 7.57599C2.41662 11.3267 5.80238 14.0046 9.72374 14.0046C13.6468 14.0046 17.0336 11.3244 17.9709 7.57148C18.0712 7.1696 18.4784 6.92518 18.8803 7.02555C19.2821 7.12591 19.5266 7.53305 19.4262 7.93492C18.3231 12.3519 14.3393 15.5046 9.72374 15.5046Z" fill="white"/>
</svg>
