<svg width="11" height="12" viewBox="0 0 11 12" fill="none" xmlns="http://www.w3.org/2000/svg">
  <path d="M10.8485 10.3748L8.70677 8.03828C8.6101 7.93282 8.47905 7.87423 8.34157 7.87423H7.99141C8.58432 7.04697 8.93663 6.00644 8.93663 4.87452C8.93663 2.18182 6.93663 0 4.46831 0C2 0 0 2.18182 0 4.87452C0 7.56723 2 9.74905 4.46831 9.74905C5.50591 9.74905 6.45972 9.36471 7.21805 8.7179V9.09989C7.21805 9.24988 7.27175 9.39283 7.36842 9.49829L9.5102 11.8348C9.71214 12.0551 10.0387 12.0551 10.2385 11.8348L10.8464 11.1716C11.0483 10.9513 11.0483 10.5951 10.8485 10.3748ZM4.46831 7.87423C2.94952 7.87423 1.71858 6.53374 1.71858 4.87452C1.71858 3.21765 2.94737 1.87482 4.46831 1.87482C5.98711 1.87482 7.21805 3.21531 7.21805 4.87452C7.21805 6.53139 5.98926 7.87423 4.46831 7.87423Z" fill="white"/>
</svg>
