<svg width="16" height="18" viewBox="0 0 16 18" fill="none" xmlns="http://www.w3.org/2000/svg">
<path d="M14.909 1.57445L14.9528 1.71157L15.4263 3.36287C15.5162 3.67636 15.3575 4.00224 15.067 4.12992L14.9846 4.15966L5.77108 6.80092L15.3558 6.80173C15.6819 6.80173 15.9515 7.04407 15.9941 7.3585L16 7.44591V14.745C16 16.0012 15.0194 17.0284 13.7819 17.1027L13.638 17.107H2.90246C1.64627 17.107 0.61911 16.1264 0.544747 14.8889L0.540437 14.745L0.54026 7.53701L0.0921102 5.97281C-0.254144 4.76527 0.405376 3.50761 1.57445 3.09502L1.71157 3.05122L12.0312 0.0921102C13.2387 -0.254144 14.4964 0.405376 14.909 1.57445ZM14.7109 8.08927H1.82882V14.745C1.82882 15.2639 2.19684 15.6967 2.68609 15.7969L2.79269 15.8131L2.90246 15.8187H13.638C14.1939 15.8187 14.6511 15.3962 14.7061 14.8548L14.7116 14.745L14.7109 8.08927ZM3.3514 3.9213L2.0667 4.28969C1.53233 4.44291 1.20924 4.97506 1.30561 5.51064L1.33054 5.61769L1.6263 6.64912L1.87975 6.57623L3.3514 3.9213ZM7.4367 2.74986L5.1026 3.41916L3.63095 6.07408L5.96505 5.40479L7.4367 2.74986ZM11.5228 1.57819L9.18872 2.24748L7.71707 4.90241L10.0503 4.23335L11.5228 1.57819ZM13.1094 1.37758L11.8032 3.73073L14.0093 3.09834L13.7143 2.0667C13.6223 1.74571 13.3935 1.50096 13.1094 1.37758Z" fill="white"/>
</svg>
